HIERARCHY
ROOT Hips
{
	OFFSET	0.00	0.00	0.00
	CHANNELS 6 Xposition Yposition Zposition Zrotation Xrotation Yrotation
	JOINT LeftHip
	{
		OFFSET	 3.430000	 0.000000	 0.000000
		CHANNELS 3 Zrotation Xrotation Yrotation
		JOINT LeftKnee
		{
			OFFSET	 0.000000	-18.469999	 0.000000
			CHANNELS 3 Zrotation Xrotation Yrotation
			JOINT LeftAnkle
			{
				OFFSET	 0.000000	-17.950001	 0.000000
				CHANNELS 3 Zrotation Xrotation Yrotation
				End Site 
				{
					OFFSET	 0.000000	-3.119996	 0.000000
				}
			}
		}
	}
	JOINT RightHip
	{
		OFFSET	-3.430000	 0.000000	 0.000000
		CHANNELS 3 Zrotation Xrotation Yrotation
		JOINT RightKnee
		{
			OFFSET	 0.000000	-18.809999	 0.000000
			CHANNELS 3 Zrotation Xrotation Yrotation
			JOINT RightAnkle
			{
				OFFSET	 0.000000	-17.570000	 0.000000
				CHANNELS 3 Zrotation Xrotation Yrotation
				End Site 
				{
					OFFSET	 0.000000	-3.250000	 0.000000
				}
			}
		}
	}
	JOINT Chest
	{
		OFFSET	 0.000000	 4.570000	 0.000000
		CHANNELS 3 Zrotation Xrotation Yrotation
		JOINT LeftCollar
		{
			OFFSET	 1.060000	 15.330000	 1.760000
			CHANNELS 3 Zrotation Xrotation Yrotation
			JOINT LeftShoulder
			{
				OFFSET	 5.810000	 0.000000	 0.000000
				CHANNELS 3 Zrotation Xrotation Yrotation
				JOINT LeftElbow
				{
					OFFSET	 0.000000	-12.080000	 0.000000
					CHANNELS 3 Zrotation Xrotation Yrotation
					JOINT LeftWrist
					{
						OFFSET	 0.000000	-9.820000	 0.000000
						CHANNELS 3 Zrotation Xrotation Yrotation
						End Site 
						{
							OFFSET	 0.000000	-7.369996	 0.000000
						}
					}
				}
			}
		}
		JOINT RightCollar
		{
			OFFSET	-1.060000	 15.330000	 1.760000
			CHANNELS 3 Zrotation Xrotation Yrotation
			JOINT RightShoulder
			{
				OFFSET	-6.060000	 0.000000	 0.000000
				CHANNELS 3 Zrotation Xrotation Yrotation
				JOINT RightElbow
				{
					OFFSET	 0.000000	-11.900000	 0.000000
					CHANNELS 3 Zrotation Xrotation Yrotation
					JOINT RightWrist
					{
						OFFSET	 0.000000	-9.520000	 0.000000
						CHANNELS 3 Zrotation Xrotation Yrotation
						End Site 
						{
							OFFSET	 0.000000	-7.140012	 0.000000
						}
					}
				}
			}
		}
		JOINT Neck
		{
			OFFSET	 0.000000	 17.620001	 0.000000
			CHANNELS 3 Zrotation Xrotation Yrotation
			JOINT Head
			{
				OFFSET	 0.000000	 5.190000	 0.000000
				CHANNELS 3 Zrotation Xrotation Yrotation
				End Site 
				{
					OFFSET	 0.000000	 4.140008	 0.000000
				}
			}
		}
	}
}

MOTION
Frames: 14
Frame Time: 0.033333
-23.3663 -4.0128 -30.4035 -6.89799 -2.4336 157.44 21.468 0.787703 10.0189 -4.61894 17.9014 1.46872 -22.5475 -4.80372 -4.82228 -34.0378 -33.8101 -30.7597 8.13549 56.0742 -3.08621 10.6199 -11.0244 12.852 12.919 49.7152 -18.3319 0 0 0 22.2035 -44.7166 40.2114 -52.4637 -40.9323 -39.815 40.9247 -41.0503 -50.2018 0 0 0 -23.1194 -5.53256 -40.9717 29.3786 -50.8488 19.8275 -20.8253 -26.2263 2.87709 0 0 0 -0.475105 -41.1951 -27.9522 
-24.1423 -4.2665 -30.2353 -7.36711 -2.10077 157.593 23.3181 2.67863 7.90569 -4.63136 17.46 1.88466 -24.6282 -5.38931 -5.91604 -33.4486 -33.5874 -31.025 7.55482 56.5614 -2.09399 9.2793 -12.9843 12.8159 11.9626 49.9057 -17.7728 0 0 0 23.1694 -46.3602 38.7938 -45.9184 -38.8934 -33.7559 40.3561 -40.8958 -46.2471 0 0 0 -23.9615 -5.10978 -40.6741 29.5602 -50.9875 19.8043 -20.0881 -26.5378 3.97833 0 0 0 -0.685697 -41.0668 -28.2268 
-24.9283 -4.6607 -30.1826 -7.22342 -1.23087 157.142 24.9699 5.72904 6.93662 -4.19867 17.0688 1.80231 -25.557 -8.13376 -5.5896 -33.481 -33.4215 -29.5107 7.97653 56.0374 -2.55978 7.07213 -15.2315 12.2376 11.259 50.2038 -17.0696 0 0 0 23.6418 -47.9171 38.0007 -41.7241 -37.6893 -29.8376 38.5791 -39.36 -46.4541 0 0 0 -25.0539 -4.44345 -40.508 29.3752 -50.9344 19.5337 -19.7319 -26.5048 4.59302 0 0 0 -0.861997 -40.2844 -28.0072 
-25.8449 -5.0625 -30.1098 -6.80746 -0.302272 156.718 26.3146 9.08548 6.54081 -4.18281 16.4484 2.02855 -24.9327 -11.1905 -4.70128 -33.941 -33.1152 -27.9876 8.37955 55.3319 -3.02422 6.64402 -16.1458 11.6966 10.8229 50.3208 -16.7019 0 0 0 24.5319 -49.5286 38.8684 -40.5817 -37.2302 -28.6602 36.7191 -36.9121 -48.7575 0 0 0 -25.7795 -3.88609 -40.7137 28.8835 -50.5108 19.3267 -19.533 -26.6454 5.20675 0 0 0 -0.651111 -39.1834 -27.4512 
-26.7815 -5.3664 -30.0319 -6.21139 0.533952 156.296 27.1581 11.6116 6.39082 -4.10385 15.8538 2.04304 -24.4178 -13.8379 -4.19156 -34.4581 -32.9837 -26.5657 8.42291 54.9069 -3.04459 7.54683 -15.7469 11.2691 10.6448 50.2978 -16.5749 0 0 0 26.1365 -50.9085 40.9106 -41.9587 -38.6951 -29.6308 35.9926 -35.3492 -52.8467 0 0 0 -26.0765 -3.46676 -40.828 27.9559 -50.0103 18.398 -19.4266 -26.7077 6.00652 0 0 0 -0.170229 -37.9569 -26.8292 
-27.683 -5.5547 -29.9641 -5.51981 1.0843 155.923 27.3299 13.3363 6.54422 -3.8887 15.4545 1.95522 -24.9577 -16.4914 -4.37876 -34.9939 -33.1608 -25.8375 7.90943 54.774 -2.56054 8.65236 -14.5425 11.1532 10.8371 50.2202 -16.7397 0 0 0 28.2097 -51.9067 44.1413 -46.0508 -40.8916 -32.9154 34.9509 -32.3587 -54.3121 0 0 0 -25.8462 -3.20094 -41.0879 27.3319 -49.6124 17.7545 -20.0252 -26.4461 6.24894 0 0 0 0.43119 -37.0772 -26.331 
-28.4665 -5.5572 -29.8963 -5.04877 1.26643 155.802 26.8687 14.1681 7.09446 -3.88159 14.9393 1.76208 -26.653 -19.7852 -5.69681 -35.7925 -33.3123 -25.4191 7.73117 54.2968 -2.59883 9.87364 -13.3168 11.3361 11.3429 49.9896 -17.3015 0 0 0 31.001 -52.8649 48.8827 -52.0639 -43.165 -37.887 33.2715 -28.7634 -58.5453 0 0 0 -25.1882 -3.00017 -41.6045 27.1828 -49.4334 17.6723 -21.1408 -25.9692 5.39947 0 0 0 1.08665 -36.4013 -25.8736 
-29.1445 -5.4015 -29.8034 -4.82445 1.19253 155.746 25.7643 13.9605 8.2031 -3.74118 14.5013 1.24652 -26.4591 -21.3302 -6.26231 -36.6934 -33.4446 -25.1047 8.09561 53.657 -2.8917 11.7728 -11.8793 11.3884 11.6878 49.7156 -17.7592 0 0 0 34.1655 -53.5304 54.3727 -58.0964 -44.8809 -43.3531 32.0506 -25.6553 -64.5465 0 0 0 -24.3694 -2.8337 -42.1101 27.4533 -49.3888 17.9679 -21.9966 -25.6906 4.59662 0 0 0 1.73808 -35.8753 -25.419 
-29.6894 -5.1655 -29.6678 -4.79934 0.877916 155.914 25.0698 12.7571 9.44224 -3.73327 14.4857 0.639118 -25.5456 -20.9079 -5.93463 -37.4913 -34.0183 -25.3535 7.77329 53.1245 -2.73531 13.9095 -10.3048 11.8618 11.8657 49.426 -18.1999 0 0 0 37.4012 -53.1897 60.24 -65.0316 -45.6996 -49.4208 31.8328 -22.0151 -69.3286 0 0 0 -23.406 -2.82452 -42.3699 27.8691 -49.4249 18.4075 -22.4754 -25.6674 4.18066 0 0 0 2.43033 -35.7151 -25.0425 
-30.0862 -4.8968 -29.5096 -4.93496 0.307819 156.277 24.9641 11.1654 9.56785 -4.09403 14.5303 0.584806 -24.8853 -19.2067 -5.96238 -38.3833 -34.632 -26.2233 7.01521 52.5831 -2.20752 16.0671 -8.77591 12.6121 11.9022 49.1834 -18.5308 0 0 0 40.2662 -52.3696 65.356 -70.9898 -45.8699 -54.5728 32.6412 -18.757 -71.8945 0 0 0 -22.3353 -3.08261 -42.3976 28.3264 -49.537 18.8036 -22.5974 -25.8069 4.16846 0 0 0 3.21283 -35.8669 -24.8686 
-30.2695 -4.7486 -29.3564 -5.17081 -0.210994 156.714 25.5978 9.37986 9.41795 -4.63063 14.9747 0.454847 -24.4659 -17.1786 -5.50635 -39.3181 -35.0933 -26.8444 6.51323 52.1118 -2.00148 17.4279 -7.82869 13.8416 11.7571 49.1979 -18.55 0 0 0 41.0919 -51.5257 67.6193 -71.5992 -46.0741 -55.4079 33.0241 -19.541 -69.8246 0 0 0 -21.6803 -3.35141 -42.175 29.0905 -49.9614 19.3129 -22.6157 -25.7741 4.18164 0 0 0 3.50038 -36.3334 -24.9599 
-30.3725 -4.6959 -29.2283 -5.40397 -0.694139 157.039 26.3329 8.43038 9.49655 -4.8171 15.2634 0.364663 -24.0926 -14.9968 -4.6351 -40.3016 -35.3202 -27.7061 6.32297 51.8293 -1.97951 18.4393 -7.19069 15.4219 11.5729 49.2978 -18.3584 0 0 0 40.7033 -50.474 68.5088 -68.8562 -45.269 -53.225 33.4166 -21.4581 -64.1404 0 0 0 -21.5685 -3.52882 -42.0922 30.0742 -50.3871 19.9531 -22.5841 -25.8329 4.27587 0 0 0 3.45578 -36.9202 -25.1219 
-30.4302 -4.7988 -29.0952 -5.6193 -0.837544 157.353 27.5841 7.81748 9.34078 -4.91331 15.695 0.441044 -24.3912 -13.7857 -4.01082 -41.1268 -35.2013 -28.4641 6.39139 51.7623 -2.02781 18.9854 -6.97975 16.9452 11.2192 49.4921 -17.8908 0 0 0 39.4242 -49.8023 67.7481 -63.7976 -44.404 -49.1567 34.5699 -24.5098 -60.3356 0 0 0 -21.9842 -3.51005 -42.1033 30.9942 -50.7835 20.594 -22.4217 -26.0055 4.55201 0 0 0 3.24687 -37.2351 -25.3687 
-30.5256 -5.2056 -28.9496 -5.39086 -0.330453 157.476 28.484 8.45794 8.46836 -4.84894 15.7205 0.627575 -25.19 -14.0728 -3.60173 -41.863 -35.1539 -29.2494 5.83904 52.5458 -1.40489 19.6709 -6.92044 18.7543 10.6501 50.0465 -17.1215 0 0 0 37.6026 -49.3574 64.3354 -56.6097 -42.7734 -43.6893 34.8713 -27.0315 -58.8135 0 0 0 -22.9422 -3.5942 -41.872 31.1814 -50.8811 20.792 -21.679 -26.3822 5.36361 0 0 0 2.97697 -37.1297 -25.6553 
